<?xml version="1.0" encoding="UTF-8" standalone="no"?>
<!-- Created with Inkscape (http://www.inkscape.org/) -->

<svg
   width="32"
   height="32"
   viewBox="0 0 8.4666665 8.4666669"
   version="1.1"
   id="svg932"
   inkscape:export-filename="/home/chol/repos/kym-userscripts/src/knowyourvote.png"
   inkscape:export-xdpi="96"
   inkscape:export-ydpi="96"
   inkscape:version="1.1.2 (0a00cf5339, 2022-02-04)"
   sodipodi:docname="knowyourvote.svg"
   xmlns:inkscape="http://www.inkscape.org/namespaces/inkscape"
   xmlns:sodipodi="http://sodipodi.sourceforge.net/DTD/sodipodi-0.dtd"
   xmlns="http://www.w3.org/2000/svg"
   xmlns:svg="http://www.w3.org/2000/svg">
  <sodipodi:namedview
     id="namedview934"
     pagecolor="#111248"
     bordercolor="#666666"
     borderopacity="1.0"
     inkscape:pageshadow="2"
     inkscape:pageopacity="1"
     inkscape:pagecheckerboard="false"
     inkscape:document-units="mm"
     showgrid="false"
     units="px"
     inkscape:zoom="17.902581"
     inkscape:cx="12.288731"
     inkscape:cy="18.544812"
     inkscape:window-width="2560"
     inkscape:window-height="1047"
     inkscape:window-x="0"
     inkscape:window-y="0"
     inkscape:window-maximized="1"
     inkscape:current-layer="layer1" />
  <defs
     id="defs929" />
  <g
     inkscape:label="Layer 1"
     inkscape:groupmode="layer"
     id="layer1">
    <path
       d="M 6.1746661,6.2030765 C 6.2542973,6.0885741 6.2735545,5.9464872 6.2329582,5.7795913 6.3877099,5.6177267 6.4706373,5.3160303 6.3884038,5.0703708 6.5549527,4.8479586 6.5700462,4.5377614 6.4767094,4.3163901 l 0.00104,-0.00104 C 6.5905178,4.2018878 6.6628625,4.018684 6.6621685,3.8486654 6.6606071,3.5606746 6.4140801,3.2973193 6.0971168,3.2973193 h -0.965116 c 0.069395,-0.268907 0.3157489,-0.4946154 0.3157489,-0.8969351 0,-0.6972498 -0.455407,-0.7728908 -0.6831973,-0.7728908 -0.1913577,0 -0.2796633,0.3728266 -0.321821,0.5482234 C 4.3932872,2.3813005 4.3421082,2.5938238 4.2017561,2.7346964 3.8936406,3.0431588 3.7321229,3.436457 3.3563471,3.8078957 a 0.11380839,0.11380839 0 0 0 -0.03383,0.080846 v 2.028079 c 0,0.062109 0.049791,0.1127674 0.1117265,0.1138083 0.150241,0.00277 0.3481912,0.086224 0.4996466,0.1535373 0.3011759,0.1341065 0.6760843,0.3008289 1.1342672,0.3010023 L 5.1831798,6.4849952 C 5.5681506,6.4832576 5.9947585,6.461401 6.1746661,6.2030765 Z M 2.7911218,6.4851686 c 0.1257791,0 0.2277903,-0.1020112 0.2277903,-0.2277902 V 3.9803431 c 0,-0.1256056 -0.1020112,-0.2276168 -0.2277903,-0.2276168 H 2.0321101 c -0.1256056,0 -0.2276168,0.1020112 -0.2276168,0.2276168 v 2.2770353 c 0,0.125779 0.1020112,0.2277902 0.2276168,0.2277902 z M 2.4117027,6.105576 a 0.22770353,0.22770353 0 1 1 0,-0.455407 0.22770353,0.22770353 0 0 1 0,0.455407 z"
       fill="#21952f"
       fill-rule="nonzero"
       id="path2"
       style="stroke-width:0.264583;fill:#ffffff" />
  </g>
</svg>
